<svg xmlns="http://www.w3.org/2000/svg" width="41" height="40" fill="none" viewBox="0 0 41 40"><path stroke="#0DACA3" stroke-linecap="round" stroke-linejoin="round" stroke-width="2" d="M13.4172 26.8324L4.80935 23.6605C4.572 23.5729 4.3672 23.4147 4.22256 23.2071C4.07791 22.9995 4.00037 22.7526 4.00037 22.4996C4.00037 22.2466 4.07791 21.9997 4.22256 21.7921C4.3672 21.5845 4.572 21.4263 4.80935 21.3387L13.4172 18.1668L16.589 9.55898C16.6766 9.32163 16.8349 9.11684 17.0425 8.97219C17.25 8.82755 17.497 8.75 17.75 8.75C18.003 8.75 18.2499 8.82755 18.4575 8.97219C18.665 9.11684 18.8233 9.32163 18.9109 9.55898L22.0828 18.1668L30.6906 21.3387C30.9279 21.4263 31.1327 21.5845 31.2774 21.7921C31.422 21.9997 31.4996 22.2466 31.4996 22.4996C31.4996 22.7526 31.422 22.9995 31.2774 23.2071C31.1327 23.4147 30.9279 23.5729 30.6906 23.6605L22.0828 26.8324L18.9109 35.4402C18.8233 35.6776 18.665 35.8824 18.4575 36.027C18.2499 36.1717 18.003 36.2492 17.75 36.2492C17.497 36.2492 17.25 36.1717 17.0425 36.027C16.8349 35.8824 16.6766 35.6776 16.589 35.4402L13.4172 26.8324Z"/><path stroke="#0DACA3" stroke-linecap="round" stroke-linejoin="round" stroke-width="2" d="M27.75 2.5V10"/><path stroke="#0DACA3" stroke-linecap="round" stroke-linejoin="round" stroke-width="2" d="M35.25 11.25V16.25"/><path stroke="#0DACA3" stroke-linecap="round" stroke-linejoin="round" stroke-width="2" d="M24 6.25H31.5"/><path stroke="#0DACA3" stroke-linecap="round" stroke-linejoin="round" stroke-width="2" d="M32.75 13.75H37.75"/></svg>