<svg xmlns="http://www.w3.org/2000/svg" width="41" height="40" fill="none" viewBox="0 0 41 40"><path stroke="#0DACA3" stroke-linecap="round" stroke-linejoin="round" stroke-width="2" d="M19 25L34 10"/><path stroke="#0DACA3" stroke-linecap="round" stroke-linejoin="round" stroke-width="2" d="M9.06875 24.9998C9.02297 24.5847 9.00002 24.1674 9 23.7498C9.00151 21.9644 9.42758 20.205 10.243 18.6167C11.0585 17.0285 12.24 15.6569 13.69 14.6152C15.14 13.5735 16.8169 12.8915 18.5824 12.6256C20.3478 12.3597 22.1512 12.5174 23.8438 13.0858"/><path stroke="#0DACA3" stroke-linecap="round" stroke-linejoin="round" stroke-width="2" d="M34.7219 16.3506C35.7241 18.3172 36.3168 20.4667 36.464 22.6691C36.6112 24.8714 36.3098 27.0807 35.5781 29.1631C35.4927 29.4086 35.3328 29.6214 35.1208 29.7717C34.9088 29.9221 34.6552 30.0027 34.3953 30.0022H6.1031C5.8427 30.0011 5.58906 29.9192 5.3772 29.7678C5.16534 29.6163 5.00569 29.4029 4.92029 29.1569C4.29534 27.3799 3.98393 25.5077 3.99998 23.6241C4.06873 14.6882 11.4578 7.42096 20.4062 7.50065C22.9284 7.52089 25.4109 8.12976 27.6562 9.27877"/></svg>