<svg xmlns="http://www.w3.org/2000/svg" width="41" height="40" fill="none" viewBox="0 0 41 40"><path stroke="#0DACA3" stroke-linecap="round" stroke-linejoin="round" stroke-width="2" d="M20.5 20L35.5 5"/><path stroke="#0DACA3" stroke-linecap="round" stroke-linejoin="round" stroke-width="2" d="M31.1062 9.39496C28.4493 6.74436 24.8944 5.18749 21.1447 5.03235C17.3949 4.8772 13.7236 6.13509 10.8568 8.55715C7.99008 10.9792 6.13681 14.389 5.66365 18.112C5.19049 21.835 6.13191 25.6 8.30165 28.6621C10.4714 31.7243 13.7114 33.8605 17.3808 34.6483C21.0501 35.4361 24.8814 34.8179 28.1169 32.9162C31.3523 31.0144 33.7561 27.9676 34.8527 24.3785C35.9494 20.7893 35.659 16.9193 34.039 13.534"/><path stroke="#0DACA3" stroke-linecap="round" stroke-linejoin="round" stroke-width="2" d="M25.8031 14.6974C24.5625 13.4582 22.9268 12.693 21.1805 12.5346C19.4341 12.3762 17.6875 12.8347 16.2441 13.8304C14.8008 14.8262 13.7519 16.2962 13.2799 17.985C12.8079 19.6737 12.9425 21.4745 13.6604 23.0744C14.3782 24.6742 15.634 25.9719 17.2093 26.742C18.7847 27.5121 20.5801 27.7058 22.2835 27.2895C23.9869 26.8733 25.4905 25.8733 26.5332 24.4635C27.5758 23.0536 28.0915 21.323 27.9906 19.5724"/></svg>