<svg width="77" height="77" viewBox="0 0 77 77" fill="none" xmlns="http://www.w3.org/2000/svg">
<rect width="77" height="77" rx="38.5" fill="#DFF1EF"/>
<path d="M31.6668 45.3324L23.059 42.1605C22.8216 42.0729 22.6168 41.9147 22.4722 41.7071C22.3275 41.4995 22.25 41.2526 22.25 40.9996C22.25 40.7466 22.3275 40.4997 22.4722 40.2921C22.6168 40.0845 22.8216 39.9263 23.059 39.8387L31.6668 36.6668L34.8387 28.059C34.9263 27.8216 35.0845 27.6168 35.2921 27.4722C35.4997 27.3275 35.7466 27.25 35.9996 27.25C36.2526 27.25 36.4995 27.3275 36.7071 27.4722C36.9147 27.6168 37.0729 27.8216 37.1605 28.059L40.3324 36.6668L48.9402 39.8387C49.1776 39.9263 49.3824 40.0845 49.527 40.2921C49.6717 40.4997 49.7492 40.7466 49.7492 40.9996C49.7492 41.2526 49.6717 41.4995 49.527 41.7071C49.3824 41.9147 49.1776 42.0729 48.9402 42.1605L40.3324 45.3324L37.1605 53.9402C37.0729 54.1776 36.9147 54.3824 36.7071 54.527C36.4995 54.6717 36.2526 54.7492 35.9996 54.7492C35.7466 54.7492 35.4997 54.6717 35.2921 54.527C35.0845 54.3824 34.9263 54.1776 34.8387 53.9402L31.6668 45.3324Z" stroke="#1D6F6A" stroke-width="2" stroke-linecap="round" stroke-linejoin="round"/>
<path d="M46 21V28.5" stroke="#1D6F6A" stroke-width="2" stroke-linecap="round" stroke-linejoin="round"/>
<path d="M53.5 29.75V34.75" stroke="#1D6F6A" stroke-width="2" stroke-linecap="round" stroke-linejoin="round"/>
<path d="M42.25 24.75H49.75" stroke="#1D6F6A" stroke-width="2" stroke-linecap="round" stroke-linejoin="round"/>
<path d="M51 32.25H56" stroke="#1D6F6A" stroke-width="2" stroke-linecap="round" stroke-linejoin="round"/>
</svg>
